<svg width="20" height="26" viewBox="0 0 20 26" fill="none" xmlns="http://www.w3.org/2000/svg">
<path d="M2.5 25.5C1.8125 25.5 1.22396 25.2552 0.734375 24.7656C0.244792 24.276 0 23.6875 0 23V8C0 6.83333 0.354167 5.8125 1.0625 4.9375C1.77083 4.0625 2.66667 3.47917 3.75 3.1875V0.5H7.5V3H12.5V0.5H16.25V3.1875C17.3333 3.47917 18.2292 4.0625 18.9375 4.9375C19.6458 5.8125 20 6.83333 20 8V23C20 23.6875 19.7552 24.276 19.2656 24.7656C18.776 25.2552 18.1875 25.5 17.5 25.5H2.5ZM2.5 23H17.5V8C17.5 7.3125 17.2552 6.72396 16.7656 6.23438C16.276 5.74479 15.6875 5.5 15 5.5H5C4.3125 5.5 3.72396 5.74479 3.23438 6.23438C2.74479 6.72396 2.5 7.3125 2.5 8V23ZM13.125 18H15.625V13H4.375V15.5H13.125V18Z" fill="#2F1369"/>
</svg>
