<svg width="30" height="30" viewBox="0 0 30 30" fill="none" xmlns="http://www.w3.org/2000/svg">
<mask id="mask0_340_1197" style="mask-type:alpha" maskUnits="userSpaceOnUse" x="0" y="0" width="30" height="30">
<rect width="30" height="30" fill="#D9D9D9"/>
</mask>
<g mask="url(#mask0_340_1197)">
<path d="M8.5 16.25L15 20L21.5 16.25L16.25 13.2187V17.5H13.75V13.2187L8.5 16.25ZM13.75 10.3438V9.8125C12.8333 9.54167 12.0833 9.02604 11.5 8.26563C10.9167 7.50521 10.625 6.625 10.625 5.625C10.625 4.41667 11.0521 3.38542 11.9063 2.53125C12.7604 1.67708 13.7917 1.25 15 1.25C16.2083 1.25 17.2396 1.67708 18.0938 2.53125C18.9479 3.38542 19.375 4.41667 19.375 5.625C19.375 6.625 19.0833 7.50521 18.5 8.26563C17.9167 9.02604 17.1667 9.54167 16.25 9.8125V10.3438L25 15.375C25.3958 15.6042 25.7031 15.9115 25.9219 16.2969C26.1406 16.6823 26.25 17.1042 26.25 17.5625V19.9375C26.25 20.3958 26.1406 20.8177 25.9219 21.2031C25.7031 21.5885 25.3958 21.8958 25 22.125L16.25 27.1563C15.8542 27.3854 15.4375 27.5 15 27.5C14.5625 27.5 14.1458 27.3854 13.75 27.1563L5 22.125C4.60417 21.8958 4.29688 21.5885 4.07813 21.2031C3.85938 20.8177 3.75 20.3958 3.75 19.9375V17.5625C3.75 17.1042 3.85938 16.6823 4.07813 16.2969C4.29688 15.9115 4.60417 15.6042 5 15.375L13.75 10.3438ZM13.75 22.1563L6.25 17.8438V19.9375L15 25L23.75 19.9375V17.8438L16.25 22.1563C15.8542 22.3854 15.4375 22.5 15 22.5C14.5625 22.5 14.1458 22.3854 13.75 22.1563ZM15 7.5C15.5208 7.5 15.9635 7.31771 16.3281 6.95312C16.6927 6.58854 16.875 6.14583 16.875 5.625C16.875 5.10417 16.6927 4.66146 16.3281 4.29688C15.9635 3.93229 15.5208 3.75 15 3.75C14.4792 3.75 14.0365 3.93229 13.6719 4.29688C13.3073 4.66146 13.125 5.10417 13.125 5.625C13.125 6.14583 13.3073 6.58854 13.6719 6.95312C14.0365 7.31771 14.4792 7.5 15 7.5Z" fill="#2F1369"/>
</g>
</svg>
